<?xml version="1.0" encoding="utf-8"?>
<!-- Generator: Adobe Illustrator 24.2.3, SVG Export Plug-In . SVG Version: 6.00 Build 0)  -->
<svg version="1.1" id="katman_1" xmlns="http://www.w3.org/2000/svg" xmlns:xlink="http://www.w3.org/1999/xlink" x="0px" y="0px"
	 viewBox="0 0 1920 355.5" style="enable-background:new 0 0 1920 355.5;" xml:space="preserve">
<style type="text/css">
	.st0{fill:#FFFFFF;}
</style>
<g>
	<g>
		<path class="st0" d="M92.3,273c1-1.2,1.6-2.4,1.9-3.7c0.3-1.2,0.6-2.4,1-3.7c2.9-10.7,5.9-22.9,9.1-36.4
			c3.2-13.5,6.5-27.4,9.8-41.7c3.4-14.3,7-28.2,10.8-41.9c3.8-13.7,7.8-25.9,12-36.8c4.2-10.9,8.6-19.7,13.2-26.5
			c4.6-6.8,9.5-10.6,14.6-11.3c5.4-0.7,9.5,0.1,12.2,2.6c2.7,2.4,4.1,5.7,4.1,9.9c0,8-1,18.4-3.1,31.1c-2.1,12.7-4.3,26.5-6.7,41.3
			c-2.4,14.9-4.3,29.9-5.8,45.2c-1.4,15.2-1.4,29.5,0.2,42.6c2.2-1,4.7-4.3,7.4-10.1c2.7-5.7,5.6-13,8.6-21.8
			c3-8.8,6.2-18.7,9.6-29.6c3.4-11,6.8-22.2,10.3-33.7c3.5-11.5,7.2-22.6,11-33.5c3.8-10.9,7.6-20.6,11.3-29.3
			c3.7-8.7,7.4-15.8,11-21.4c3.7-5.6,7.3-8.8,10.8-9.5c6.4-1.2,11.6-0.4,15.6,2.4c4,2.8,6,7.7,6,14.8c0.3,15.4-1.3,32.4-4.8,51.2
			c-3.5,18.8-7.3,38-11.3,57.6c-4,19.6-7.7,39.1-11,58.4c-3.4,19.3-4.7,37-4.1,53.1c0,2.2,0.1,4.4,0.2,6.6c0.2,2.2,1,4.3,2.6,6.2
			c1.6-0.2,2.9-0.9,3.8-1.8c1-1,1.9-2,2.9-2.9c6.4-10.2,11.9-20.2,16.6-29.8c4.6-9.6,9.3-19.2,13.9-28.7c4.6-9.5,9.6-19,14.9-28.5
			c5.3-9.5,11.6-19.1,19-28.9c0.6-0.5,1.2-1,1.7-1.6c0.5-0.6,1.2-1,2.2-1.3c0.6,0.7,0.7,1.4,0.2,2c-0.5,0.6-0.9,1.2-1.2,1.6
			c-6.4,10.5-12,20.3-16.8,29.5c-4.8,9.1-9.4,18.2-13.7,27.3c-4.3,9-8.7,18.1-13.2,27.1c-4.5,9-9.3,18.7-14.4,28.9
			c-0.6,1-1.4,1.9-2.2,2.7c-0.8,0.9-1.5,1.8-2.2,2.7c-1.6,1.5-3.2,2.8-4.8,4c-1.6,1.2-3.8,1.6-6.7,1.1c-2.9-0.2-5.1-1.1-6.7-2.6
			c-1.6-1.5-2.9-3.2-3.8-5.1c-3.5-7.1-5.3-17.6-5.3-31.7c0-14,1-29.6,2.9-46.8c1.9-17.2,4.4-35,7.4-53.4c3-18.4,5.8-35.4,8.4-51
			c2.9-18.1,4.4-31.4,4.6-40.1c0.2-8.7-1-11.6-3.6-9c-3.5,3.9-7.4,11.1-11.5,21.6c-4.2,10.5-8.5,22.6-13,36.2
			c-4.5,13.7-9.1,27.9-13.9,42.8c-4.8,14.9-9.4,28.5-13.9,40.8c-4.5,12.3-9,22.4-13.4,30.4c-4.5,7.9-8.6,11.8-12.5,11.5
			c-3.2,0-5.6-1.3-7.2-4c-3.8-8-6.3-17.9-7.4-29.6c-1.1-11.7-1.4-24-0.7-36.8c0.6-12.8,1.8-25.4,3.4-37.9
			c1.6-12.4,3.2-23.5,4.8-33.1c1.6-9.6,2.8-17.2,3.6-22.7c0.8-5.5,0.7-7.6-0.2-6.4c-5.4,7.3-10.7,17.6-15.8,30.9
			c-5.1,13.3-10.2,28.4-15.1,45.4c-5,17-9.8,35.1-14.4,54.3c-4.6,19.3-9.4,38.3-14.2,57.1c-0.6,1.5-1.2,3-1.7,4.6
			c-0.5,1.6-1.2,3-2.2,4.2c-1.3,2.2-3,3.4-5.3,3.7c-2.2,0.2-4.3-0.5-6.2-2.2c-1.3-1-2.1-2-2.4-3.1c-0.3-1.1-0.8-2.3-1.4-3.5
			c-3.5-8.5-5.8-17.3-7-26.2c-1.1-8.9-1.5-17.9-1.2-26.9c0.6-19.8,2.8-39.1,6.5-58c3.7-18.9,8.4-37.9,14.2-56.9
			c1-2.9,2.1-5.9,3.4-8.8c1.3-2.9,2.7-5.9,4.3-8.8c1.6-2.9,3.5-4.8,5.8-5.5c2.2-0.7,5.1-0.6,8.6,0.4c4.5,1.2,7,2.2,7.4,2.9
			c0.5,0.7,0.4,2.8-0.2,6.2c-4.8,16.8-9.7,33.5-14.6,50.1c-5,16.6-9.2,33.3-12.7,50.1c-2.9,12.7-5,25.2-6.2,37.7
			c-1.3,12.4-1.3,25,0,37.7c-0.3,1-0.3,1.8,0,2.6c0.3,0.7,0.5,1.5,0.5,2.2L92.3,273z"/>
		<path class="st0" d="M310.1,175.3c1-2.7,3.4-4,7.2-4c3.5,0,6.6,0.7,9.1,2c2.6,1.3,5.1,2.6,7.7,3.8c1.3,0.5,1.3,1.5,0,2.9
			c-1.9,3.4-4.2,7.2-6.7,11.3c-2.6,4.2-5,8.4-7.2,12.8c-2.2,4.4-3.8,8.8-4.6,13.2c-0.8,4.4-0.2,8.4,1.7,12.1c1,2,1.9,3.1,2.9,3.3
			c1,0.2,2.6-0.1,4.8-1.1c4.5-2.2,9.1-5.5,13.9-9.9c4.8-4.4,9.6-9,14.4-13.9c4.8-4.9,9.4-9.9,13.7-15c4.3-5.1,8.1-9.5,11.3-13.2
			c1.3-1.5,2.6-1.9,3.8-1.5c1,0.5,1,1.3,0,2.6c-11.8,18.8-27.5,36.1-47,52c-10.2,5.9-18.7,4.9-25.4-2.9c-6.4-8-8.9-17.1-7.4-27.1
			C303.6,192.7,306.2,183.6,310.1,175.3z M349.9,141.3c-0.6,0.5-1.8,1.5-3.4,3.1c-1.6,1.6-3.4,3.2-5.3,4.9c-1.9,1.7-3.7,3.2-5.3,4.4
			c-1.6,1.2-2.6,1.8-2.9,1.8c-1.3-0.2-2.5-0.6-3.6-1.1c-1.1-0.5-1.8-1.3-2.2-2.6c-0.3-2.4-0.5-4.8-0.5-7.1c0-2.3,0.3-4.6,1-6.8
			c0.6-1.2,1.6-1.9,2.9-2.2c1.3-0.2,2.7-0.4,4.3-0.4c2.9,0.2,5.4,1,7.7,2.2C344.9,138.8,347.3,140,349.9,141.3z"/>
		<path class="st0" d="M481.4,177.5c-6.7,5.1-12.7,9.9-18,14.3c-5.3,4.4-10.8,8.4-16.6,12.1c-6.1,3.9-10.9,2.9-14.4-2.9
			c-1.6-2.7-2.4-5.5-2.4-8.6c0-3,0.3-6,1-9c0.3-1,0.6-1.9,1-2.7c0.3-0.9,0.2-1.9-0.5-3.1c-1.6,0.5-2.8,1.1-3.6,1.8
			c-0.8,0.7-1.7,1.5-2.6,2.2c-4.5,3.4-8.7,6.8-12.7,10.1c-4,3.3-8.2,6.6-12.7,10.1c-3.8,3.7-8.3,6.8-13.4,9.5
			c-5.1,2.7-9,1.8-11.5-2.6c-1.3-2.2-1.9-5.1-1.9-8.8s0.5-7.4,1.4-11.3c1-3.9,2.2-7.6,3.8-11c1.6-3.4,3.5-6,5.8-7.7
			c2.6-2.2,5.8-3.2,9.6-2.9c3.8,0.2,7,1.5,9.6,3.7c1,0.7,1.1,1.8,0.5,3.3c-0.6,1-1.4,2-2.2,2.9c-0.8,1-1.7,2.1-2.6,3.3
			c-3.5,4.2-6.1,7.7-7.7,10.8c-1.6,3.1-3.4,7.1-5.3,12.3c3.2-1.7,7.4-4.8,12.7-9.1c5.3-4.4,10.6-9,16.1-13.9
			c5.4-4.9,10.8-9.4,16.1-13.5c5.3-4.1,9.8-6.6,13.7-7.3c2.6-0.5,4.9-0.1,7,1.1c2.1,1.2,4.1,2.4,6,3.7c1.3,0.7,1.9,1.5,1.9,2.4
			c0,0.9,0,1.8,0,2.7c-1.3,2.9-3.4,7-6.2,12.1c-2.9,5.1-4.6,9.6-5.3,13.5c5.8-4.1,11.4-8.9,17-14.3c5.6-5.4,11.2-10.2,16.8-14.6
			c5.6-4.4,11.3-7.7,17-10.1c5.8-2.3,11.8-2.4,18.2-0.2c2.6,1.2,3.4,2.8,2.4,4.8c-4.5,7.8-9.3,15.4-14.4,22.9
			c-5.1,7.4-10,15-14.6,22.7c-4.6,7.7-8.8,15.5-12.5,23.4c-3.7,7.9-6.2,16.2-7.4,24.7c-0.6,2.7-1,5.4-1,8.2c0,2.8,0.3,5.6,1,8.2
			c1,2.9,2.9,3.4,5.8,1.5c2.2-1.5,4.2-3,5.8-4.6c1.6-1.6,3.2-3.2,4.8-4.9c5.8-6.1,11-12.4,15.8-19c4.8-6.6,9.4-13.2,13.9-19.8
			c5.1-7.3,10.2-14.6,15.4-21.8c5.1-7.2,9.9-14.5,14.4-21.8c0.6-0.7,1.3-1.6,1.9-2.7c0.6-1.1,1.8-1.4,3.4-0.9
			c1.9,0.7,2.5,1.6,1.7,2.7c-0.8,1.1-1.5,2-2.2,2.7c-8.3,12.2-16.7,24.3-25.2,36.2c-8.5,12-17.4,23.8-26.6,35.5
			c-3.8,5.6-8.6,10.7-14.4,15.4c-1,1-1.9,1.9-2.9,2.7c-1,0.9-2.1,1.6-3.4,2.4c-5.1,2.7-9,2-11.5-2.2c-1.3-1.9-2.2-4-2.6-6.2
			c-0.5-2.2-0.9-4.4-1.2-6.6c-1-6.8-0.9-13.7,0.2-20.5c1.1-6.8,2.6-13.7,4.6-20.7c1.9-7,4.2-13.8,6.7-20.5
			C477.2,190.7,479.4,184.1,481.4,177.5z"/>
		<path class="st0" d="M575.4,199.1c-2.2,0.7-3.8,1.6-4.8,2.7s-2.1,2.1-3.4,3.1c-2.6,2-5,3.4-7.4,4.4c-2.4,1-5.2,0.9-8.4-0.4
			c-6.1-1.7-9.6-5.4-10.6-11c-0.3-4.1,0.5-8.4,2.4-12.8c4.2-8.5,10.6-16.1,19.2-22.7c3.8-2.7,7.4-4.1,10.6-4.4
			c3.2-0.2,7,0.6,11.5,2.6c2.9,1.2,4.7,1.8,5.5,1.8c0.8,0,2.5-0.9,5-2.6c2.6-1.5,5.7-1.9,9.4-1.5c3.7,0.5,6.3,1.7,7.9,3.7
			c0.6,1,0.9,1.9,0.7,2.7c-0.2,0.9-0.6,1.8-1.2,2.7c-1,1.7-2,3.4-3.1,4.9c-1.1,1.6-2.2,3.1-3.1,4.6c-2.9,4.2-5.6,8.4-8.2,12.6
			c-2.6,4.3-5,8.5-7.2,12.6c-2.9,6.1-5.1,12.3-6.7,18.5c-1.6,6.2-2.2,12.5-1.9,18.8c0,2.9,0.5,5.6,1.4,8c1.6,3.2,4.3,3.8,8.2,1.8
			c1.6-0.7,3-1.6,4.3-2.7c1.3-1.1,2.6-2.3,3.8-3.5c2.9-3.2,5.7-6.4,8.4-9.7c2.7-3.3,5.2-6.6,7.4-10.1c4.5-7.6,9-15.1,13.7-22.5
			c4.6-7.4,8.4-15.2,11.3-23.2c0.6-0.7,1.1-1.4,1.4-2c0.3-0.6,1.3-0.7,2.9-0.2c1.9,0.2,2.2,1.3,1,3.3c-6.1,9.5-11.7,19.2-16.8,29.1
			c-5.1,9.9-11.4,19.5-18.7,28.7c-1.9,2.2-3.8,4.4-5.8,6.6c-1.9,2.2-4.2,4.3-6.7,6.2c-7.7,5.9-14.4,5.1-20.2-2.2
			c-1.6-2.4-2.7-4.9-3.4-7.3c-0.6-2.4-1.3-5-1.9-7.7c-1-9.5-0.2-19.5,2.4-30c0.3-0.5,0.5-1,0.5-1.5
			C574.9,200.4,575.1,199.8,575.4,199.1z M553.8,205.3c2.9-0.5,5.2-1.3,7-2.6c1.8-1.2,3.4-2.6,5-4c2.6-2.4,4.9-4.9,7-7.5
			c2.1-2.6,4.4-5.1,7-7.5c3.5-3.4,4.8-6.7,3.8-9.9c-1-3.2-2.2-6.6-3.8-10.2c-7.7,6.3-13.4,12.9-17,19.8
			C559,190.2,556,197.5,553.8,205.3z"/>
		<path class="st0" d="M643,203.8c0.6-5.4,0.6-10.5-0.2-15.6c-0.8-5-2.6-9.9-5.5-14.8c-1-2.2-2.1-4.3-3.4-6.2
			c-3.2-4.9-4.4-9.6-3.6-14.3c0.8-4.6,2.8-9.3,6-13.9c3.8-5.6,9.6-8.8,17.3-9.5c7.7-0.7,14.6,1,20.6,5.1c1.6,1.2,2.6,2.4,2.9,3.7
			c0.3,1.2,0.3,2.7,0,4.4c-2.9,10.2-8.8,19.8-17.8,28.5c-1.6,1.7-2.6,3.2-2.9,4.4c-0.3,1.2,0,2.8,1,4.8c3.5,5.1,5.3,10.4,5.3,15.7
			c0,5.4-0.8,10.9-2.4,16.5c-1,3.9-2.5,8.5-4.6,13.9c-2.1,5.4-4.2,10.7-6.2,16.1c-2.1,5.4-3.9,10.4-5.5,15.2
			c-1.6,4.8-2.4,8.4-2.4,10.8c0,4.2,1.1,6.2,3.4,6c2.2-0.1,4.3-1.2,6.2-3.1c5.8-5.4,11.7-11.8,17.8-19.4
			c6.1-7.6,12.2-15.4,18.2-23.4c6.1-8,11.9-16.1,17.5-24.2c5.6-8,10.6-15.2,15.1-21.6c0.6-1.2,1.4-2.4,2.2-3.7
			c0.8-1.2,1.7-2.4,2.6-3.7c0.6-1,1.4-1.2,2.4-0.7c1,0.2,1.1,0.9,0.5,1.8c-0.6,1-1.2,1.9-1.7,2.7c-0.5,0.9-1,1.8-1.7,2.7
			c-14.1,22.9-26.8,42.3-38.1,58c-11.4,15.7-21.7,27.6-30.9,35.7c-4.2,3.4-8.6,4.5-13.4,3.1c-4.8-1.3-7.7-4.3-8.6-9
			c-1-5.1-1.1-10.4-0.5-15.9c0.6-5.5,1.6-11,2.9-16.6c1.3-5.6,2.7-11.2,4.3-16.8C641.3,215.1,642.4,209.4,643,203.8z M663.7,136.1
			c-3.8,1.2-7,3.2-9.4,6c-2.4,2.8-4.2,5.9-5.3,9.1c-1.1,3.3-1.4,6.6-0.7,10.1c0.6,3.4,2.2,6.3,4.8,8.8c4.5-4.9,7.8-10.8,10.1-17.7
			C665.4,145.5,665.6,140,663.7,136.1z"/>
		<path class="st0" d="M897.8,306.3c-16,13.4-36.6,20.5-61.9,21.2c-8.6,0.5-16.3-0.9-23-4c-9.9-4.2-13.4-10.5-10.6-19
			c1.3-3.4,3-6.6,5.3-9.7c2.2-3.1,4.6-5.9,7.2-8.6c12.2-12,27-22,44.6-30c6.1-2.7,12.1-5.3,18-7.9c5.9-2.6,12.1-5.2,18.5-7.9
			c3.5-1.2,5.4-2.2,5.5-2.9c0.2-0.7-0.6-2.4-2.2-5.1c-2.6-4.6-5.8-9-9.6-13s-8-7.9-12.5-11.5c-4.5-3.7-9.1-7.3-13.9-10.8
			c-4.8-3.5-9.6-7.1-14.4-10.8c-5.4-3.9-10.2-8.1-14.4-12.4c-8.6-9-11.5-19.3-8.6-30.7c0.6-3.7,1.8-7.2,3.4-10.6
			c1.6-3.4,3.4-6.8,5.3-10.2c11.2-17.1,25.3-32.1,42.2-45c8.3-6.3,17.1-10.9,26.4-13.5c7.7-2.7,15.5-2.9,23.5-0.7
			c13.1,3.7,20.2,10.7,21.1,21.2c0.6,4.2,0.6,8.2-0.2,12.1c-0.8,3.9-2,7.8-3.6,11.7c-3.5,8.3-8.6,16.7-15.4,25.2
			c-4.8,6.3-9.6,12.6-14.4,18.8c-4.8,6.2-9.8,12.5-14.9,18.8c-0.6,1.2-1.3,1.7-1.9,1.5c-1.6-0.5-2.2-1.2-1.9-2.2
			c0.3-1,0.6-1.9,1-2.7c0.3-0.9,0.8-1.8,1.4-2.7c2.6-4.1,5-8.1,7.4-11.9c2.4-3.8,4.9-7.6,7.4-11.5c3.5-5.6,7-11.3,10.3-17
			c3.4-5.7,6.2-11.6,8.4-17.7c1.6-4.4,2.7-8.8,3.4-13.4c0.6-4.5,0.3-9.2-1-14.1c-0.3-2.2-1.3-4.6-2.9-7.3c-1.6-2.4-3.2-3.9-4.8-4.4
			c-1.6-0.5-4.2-0.4-7.7,0.4c-1.6,0.5-3.1,1-4.6,1.6c-1.4,0.6-3,1.2-4.6,1.6c-3.8,1.5-7.3,3.2-10.3,5.3c-3,2.1-6,4.3-8.9,6.8
			c-9.6,8.1-17.9,16.7-24.9,26c-7,9.3-13.1,19-18.2,29.3c-1.3,2.7-2.4,6.1-3.4,10.2c-1,5.4,1,10.8,6,16.3c5,5.5,10,10.1,15.1,13.7
			c13.1,9.3,24.9,18.9,35.3,28.9c10.4,10,17.8,20.4,22.1,31.1c4.3,10.7,4.9,21.8,1.7,33.1C920.5,283,911.9,294.6,897.8,306.3z
			 M904,241.2h-2.9c-12.2,4.9-23.8,10.1-34.8,15.6c-11,5.5-21.5,11.9-31.4,19.2c-8,5.4-14.7,11.8-20.2,19.4
			c-3.8,4.4-5.9,8.8-6.2,13.2c-0.6,4.1,0.5,7.6,3.4,10.2c2.9,2.7,7,4.3,12.5,4.8c4.8,0.5,9,0.4,12.5-0.4c10.2-1.5,19.5-4.2,27.8-8.2
			c8.3-4,15.7-9.1,22.1-15.2C904.7,282.9,910.4,263.4,904,241.2z"/>
		<path class="st0" d="M952,175.3c1-2.7,3.4-4,7.2-4c3.5,0,6.6,0.7,9.1,2c2.6,1.3,5.1,2.6,7.7,3.8c1.3,0.5,1.3,1.5,0,2.9
			c-1.9,3.4-4.2,7.2-6.7,11.3c-2.6,4.2-5,8.4-7.2,12.8c-2.2,4.4-3.8,8.8-4.6,13.2c-0.8,4.4-0.2,8.4,1.7,12.1c1,2,1.9,3.1,2.9,3.3
			c1,0.2,2.6-0.1,4.8-1.1c4.5-2.2,9.1-5.5,13.9-9.9c4.8-4.4,9.6-9,14.4-13.9c4.8-4.9,9.4-9.9,13.7-15c4.3-5.1,8.1-9.5,11.3-13.2
			c1.3-1.5,2.6-1.9,3.8-1.5c1,0.5,1,1.3,0,2.6c-11.8,18.8-27.5,36.1-47,52c-10.2,5.9-18.7,4.9-25.4-2.9c-6.4-8-8.9-17.1-7.4-27.1
			C945.5,192.7,948.2,183.6,952,175.3z M991.8,141.3c-0.6,0.5-1.8,1.5-3.4,3.1c-1.6,1.6-3.4,3.2-5.3,4.9c-1.9,1.7-3.7,3.2-5.3,4.4
			c-1.6,1.2-2.6,1.8-2.9,1.8c-1.3-0.2-2.5-0.6-3.6-1.1c-1.1-0.5-1.8-1.3-2.2-2.6c-0.3-2.4-0.5-4.8-0.5-7.1c0-2.3,0.3-4.6,1-6.8
			c0.6-1.2,1.6-1.9,2.9-2.2c1.3-0.2,2.7-0.4,4.3-0.4c2.9,0.2,5.4,1,7.7,2.2C986.9,138.8,989.3,140,991.8,141.3z"/>
		<path class="st0" d="M1033.6,193.6c2.6-2,4.8-4.1,6.7-6.4c1.9-2.3,4-4.7,6.2-7.1c2.9-3.2,5.9-6.2,9.1-9.1
			c3.2-2.9,6.7-5.7,10.6-8.4c1.9-1.2,3.8-2.1,5.8-2.7c1.9-0.6,4.2-0.3,6.7,0.9c5.1,2.2,7.5,5.4,7.2,9.5c-0.3,2.7-0.9,5.4-1.7,8.1
			c-0.8,2.7-1.7,5.4-2.6,8.1l-21.6,51.6c-1.6,3.4-2.9,6.8-3.8,10.2c-1,3.4-1.8,6.8-2.4,10.2c-0.3,1.2-0.6,2.6-0.7,4.2
			c-0.2,1.6,0.6,2.6,2.2,3.1c1.9,0.5,3.4,0.1,4.6-1.1c1.1-1.2,2.2-2.4,3.1-3.7c3.8-3.7,7.2-7.6,10.1-11.9c2.9-4.3,5.6-8.5,8.2-12.6
			c5.4-9.3,10.6-18.5,15.6-27.8c5-9.3,10-18.5,15.1-27.8c0.6-1.2,1.4-2.4,2.4-3.7c1-1.2,2.2-2.3,3.8-3.3c0.6,2.7,0,5.6-1.9,8.8
			c-6.7,11.2-13.1,22.5-19.2,33.8c-6.1,11.3-12.8,22.5-20.2,33.5c-2.9,4.9-6.2,9.3-10.1,13.2c-1.6,1.7-3.3,3.2-5,4.6
			c-1.8,1.3-4.2,1.6-7.4,0.9c-2.9-0.5-4.7-1.6-5.5-3.3c-0.8-1.7-1.5-3.5-2.2-5.5c-1.3-4.6-1.6-9.2-1-13.7c0.6-4.5,1.3-9,1.9-13.4
			c1.6-9,4-17.9,7.2-26.5c3.2-8.7,6.6-17.3,10.1-25.8c0.6-1.9,1.4-3.8,2.2-5.7c0.8-1.8,1.4-3.7,1.7-5.7c-1.3-0.2-2.2-0.1-2.6,0.4
			c-0.5,0.5-1,1-1.7,1.5c-4.2,2.7-7.8,5.6-11,8.8c-3.2,3.2-6.2,6.5-9.1,9.9c-2.2,2.7-4.5,5.2-6.7,7.5c-2.2,2.3-4.6,4.6-7.2,6.8
			c-4.8,4.2-8.8,3.7-12-1.5c-0.6-2.4-1-4.3-1-5.5c0-7.8,1.4-15.6,4.3-23.4c2.2-5.9,6.9-7.3,13.9-4.4c3.8,1.5,6.1,2.7,6.7,3.7
			c0.6,1,0.2,2.9-1.4,5.9c-1,2-2,3.8-3.1,5.5c-1.1,1.7-2.2,3.5-3.1,5.5c-0.3,0.5-0.7,1-1.2,1.6
			C1032.9,191.8,1032.9,192.6,1033.6,193.6z"/>
		<path class="st0" d="M1125.2,199.1c-1.6,3.4-2.9,6.9-3.8,10.4c-1,3.5-1.1,7.1-0.5,10.8c0.6,2.7,1.6,4.3,2.9,4.9
			c1.3,0.6,3.7,0.7,7.2,0.2c2.6-0.5,4.9-1.1,7-1.8c2.1-0.7,4.2-1.7,6.5-2.9c3.2-1.5,6.3-3.2,9.4-5.1c3-2,5.8-3.9,8.4-5.9
			c7-5.1,14-10.3,20.9-15.6c6.9-5.2,13.8-10.4,20.9-15.6c1-0.7,1.9-1.5,2.9-2.2c1-0.7,2.2-1.3,3.8-1.8c0.6,1.2,0.6,2,0,2.4
			c-0.6,0.4-1.3,0.8-1.9,1.3c-8.3,6.6-16.5,13.1-24.5,19.6c-8,6.5-16.3,12.8-24.9,18.8c-3.2,2.2-6.5,4.2-9.8,6
			c-3.4,1.8-7,3.4-10.8,4.6c-6.7,2-12.7,2-18,0.2c-5.3-1.8-9.2-5.3-11.8-10.4c-1.6-2.9-2.5-6-2.6-9.1c-0.2-3.2,0.1-6.3,0.7-9.5
			c1.3-10.7,5.8-21.1,13.4-31.1c3.8-4.9,8.6-7.9,14.2-9c5.6-1.1,11.6-0.3,18,2.4c5.4,2.2,8.6,4.4,9.6,6.6c1,2.2,0.5,5.4-1.4,9.5
			c-2.2,5.4-5.6,10.7-10.1,16.1c-3.5,4.4-7,7-10.6,7.9C1136.6,201.6,1131.6,201,1125.2,199.1z M1145.8,167.6
			c-1.3,0.7-2.1,1.2-2.4,1.5c-0.3,0.2-0.6,0.5-1,0.7c-2.9,3.4-5.4,6.9-7.4,10.4c-2.1,3.5-4.1,7.1-6,10.8c-0.3,0.5-0.5,1.5-0.5,2.9
			c0,1.2,0.8,2.1,2.4,2.6c1.6,0,2.7-0.5,3.4-1.5C1142,187.5,1145.8,178.3,1145.8,167.6z"/>
		<path class="st0" d="M1303.2,177.5c-6.7,5.1-12.7,9.9-18,14.3c-5.3,4.4-10.8,8.4-16.6,12.1c-6.1,3.9-10.9,2.9-14.4-2.9
			c-1.6-2.7-2.4-5.5-2.4-8.6c0-3,0.3-6,1-9c0.3-1,0.6-1.9,1-2.7c0.3-0.9,0.2-1.9-0.5-3.1c-1.6,0.5-2.8,1.1-3.6,1.8
			c-0.8,0.7-1.7,1.5-2.6,2.2c-4.5,3.4-8.7,6.8-12.7,10.1c-4,3.3-8.2,6.6-12.7,10.1c-3.8,3.7-8.3,6.8-13.4,9.5
			c-5.1,2.7-9,1.8-11.5-2.6c-1.3-2.2-1.9-5.1-1.9-8.8s0.5-7.4,1.4-11.3c1-3.9,2.2-7.6,3.8-11c1.6-3.4,3.5-6,5.8-7.7
			c2.6-2.2,5.8-3.2,9.6-2.9c3.8,0.2,7,1.5,9.6,3.7c1,0.7,1.1,1.8,0.5,3.3c-0.6,1-1.4,2-2.2,2.9c-0.8,1-1.7,2.1-2.6,3.3
			c-3.5,4.2-6.1,7.7-7.7,10.8c-1.6,3.1-3.4,7.1-5.3,12.3c3.2-1.7,7.4-4.8,12.7-9.1c5.3-4.4,10.6-9,16.1-13.9
			c5.4-4.9,10.8-9.4,16.1-13.5c5.3-4.1,9.8-6.6,13.7-7.3c2.6-0.5,4.9-0.1,7,1.1c2.1,1.2,4.1,2.4,6,3.7c1.3,0.7,1.9,1.5,1.9,2.4
			c0,0.9,0,1.8,0,2.7c-1.3,2.9-3.4,7-6.2,12.1c-2.9,5.1-4.6,9.6-5.3,13.5c5.8-4.1,11.4-8.9,17-14.3c5.6-5.4,11.2-10.2,16.8-14.6
			c5.6-4.4,11.3-7.7,17-10.1c5.8-2.3,11.8-2.4,18.2-0.2c2.6,1.2,3.4,2.8,2.4,4.8c-4.5,7.8-9.3,15.4-14.4,22.9
			c-5.1,7.4-10,15-14.6,22.7c-4.6,7.7-8.8,15.5-12.5,23.4c-3.7,7.9-6.2,16.2-7.4,24.7c-0.6,2.7-1,5.4-1,8.2c0,2.8,0.3,5.6,1,8.2
			c1,2.9,2.9,3.4,5.8,1.5c2.2-1.5,4.2-3,5.8-4.6c1.6-1.6,3.2-3.2,4.8-4.9c5.8-6.1,11-12.4,15.8-19c4.8-6.6,9.4-13.2,13.9-19.8
			c5.1-7.3,10.2-14.6,15.4-21.8c5.1-7.2,9.9-14.5,14.4-21.8c0.6-0.7,1.3-1.6,1.9-2.7c0.6-1.1,1.8-1.4,3.4-0.9
			c1.9,0.7,2.5,1.6,1.7,2.7c-0.8,1.1-1.5,2-2.2,2.7c-8.3,12.2-16.7,24.3-25.2,36.2c-8.5,12-17.4,23.8-26.6,35.5
			c-3.8,5.6-8.6,10.7-14.4,15.4c-1,1-1.9,1.9-2.9,2.7c-1,0.9-2.1,1.6-3.4,2.4c-5.1,2.7-9,2-11.5-2.2c-1.3-1.9-2.2-4-2.6-6.2
			c-0.5-2.2-0.9-4.4-1.2-6.6c-1-6.8-0.9-13.7,0.2-20.5c1.1-6.8,2.6-13.7,4.6-20.7c1.9-7,4.2-13.8,6.7-20.5
			C1299.1,190.7,1301.3,184.1,1303.2,177.5z"/>
		<path class="st0" d="M1495.1,252.9c1.6-1,2.7-1.9,3.4-2.9c0.6-1,1.3-1.8,1.9-2.6c17.6-23.7,35.8-45.9,54.7-66.8
			c18.9-20.9,39.8-41,62.9-60.6c2.9-2.4,5.7-4.8,8.4-7.1c2.7-2.3,5.8-4.6,9.4-6.8c2.6-1.7,4.8-2.6,6.7-2.7c1.9-0.1,4.2,0.4,6.7,1.6
			c2.9,1.5,3.7,3.3,2.4,5.5c-1,1.7-2.1,3.4-3.4,4.9c-1.3,1.6-2.7,3.1-4.3,4.6c-5.8,6.1-11.8,12-18,17.6c-6.2,5.6-12.6,11.3-19,17.2
			c-16.6,15.4-32.9,30.8-48.7,46.3c-15.8,15.5-30.9,31.7-45.3,48.5c-3.5,3.7-4,7.6-1.4,11.7c2.2,4.2,5.1,8.4,8.6,12.6
			c3.5,4.3,8.5,6.4,14.9,6.4c13.4-1.5,26.6-5.9,39.6-13.2s25.1-15.9,36.5-25.6c11.3-9.8,21.7-19.8,31.2-30.2
			c9.4-10.4,17.5-19.2,24.2-26.5c1-0.7,1.9-1.5,2.9-2.2c1-0.7,2.2-0.9,3.8-0.4c0,1-0.3,1.7-1,2.2c-0.6,0.5-1.3,1-1.9,1.5
			c-12.5,15.4-26.5,31.3-42,47.9c-15.5,16.6-33.5,31.5-54,44.6c-8,4.4-15.5,7.1-22.5,8c-7,1-13.8,0.8-20.4-0.5
			c-6.6-1.3-13-3.4-19.4-6c-6.4-2.7-13-5.5-19.7-8.4c-1,2.9-1.7,6.3-2.2,10.2c-0.5,3.9-0.7,7.9-0.7,12.1c0,4.1,0.3,8.2,1,12.1
			c0.6,3.9,1.6,7.2,2.9,9.9c-5.1,0.2-8.8-1.7-11-5.9c-5.1-17.6-6.2-36-3.4-55.4s7.7-39.3,14.4-59.8s14.3-41.5,22.8-62.9
			c8.5-21.5,15.9-42.9,22.3-64.4c0-3.2-0.2-5.5-0.7-7c-0.5-1.5-1.3-2.4-2.4-2.9c-1.1-0.5-2.6-0.5-4.3,0c-1.8,0.5-4.1,1.2-7,2.2
			c-5.8,2-12,4.5-18.7,7.5c-6.7,3.1-13.1,6.5-19.2,10.4c-6.1,3.9-11.4,8.1-16.1,12.4c-4.6,4.4-7.9,8.9-9.8,13.5
			c-1,2.4-1.4,4.8-1.4,7c0,2.2,1.1,4.4,3.4,6.6c-5.1-1-8.6-3.4-10.6-7.3c-2.2-4.4-2.4-9-0.5-13.9c1.3-4.9,4.4-9.6,9.4-14.3
			c5-4.6,10.7-8.9,17.3-12.8c6.6-3.9,13.4-7.3,20.4-10.2c7-2.9,13.4-5.1,19.2-6.6c7.4-1.9,14.1-2.1,20.2-0.4
			c6.1,1.7,11.8,4.3,17.3,7.7c2.9,2,4.7,4.2,5.5,6.8c0.8,2.6,1.2,5.2,1.2,7.9c-2.9,11.5-7,24.2-12.5,38.2
			c-5.4,14-11.3,28.5-17.5,43.4c-6.2,14.9-12.4,29.9-18.5,45c-6.1,15.1-11.2,29.4-15.4,42.8c-0.6,1.5-1.1,2.9-1.4,4.4
			C1495.8,249.2,1495.4,250.9,1495.1,252.9z"/>
		<path class="st0" d="M1708.6,202.4c10.2-3.2,19.3-6.8,27.1-11c7.8-4.1,15.3-9,22.3-14.6c0.6,0.2,1,1,1,2.2c0,1.2-0.2,2-0.5,2.2
			c-6.7,6.1-15.1,11.7-25.2,16.6c-10.1,5-19.3,8.5-27.6,10.4c-0.6,1-1.5,2.4-2.6,4.2c-1.1,1.8-2.3,3.7-3.6,5.7
			c-1.3,2-2.6,3.8-3.8,5.5c-1.3,1.7-2.4,2.9-3.4,3.7c-5.1,4.6-10.9,5.4-17.3,2.2c-3.5-1.5-6.2-3.4-8.2-5.9c-1.9-2.4-3.4-5-4.3-7.7
			c-2.6-7.8-3.4-15.8-2.4-24c1-8.2,3.2-15.8,6.7-22.9c1.6-2.7,3.4-5.3,5.5-7.9c2.1-2.6,4.9-4.8,8.4-6.8c3.2-1.9,6.8-3.2,10.8-3.8
			c4-0.6,7.7-0.5,11,0.2c3.4,0.7,6.2,2.2,8.6,4.4c2.4,2.2,3.9,5.1,4.6,8.8c1.3,7.1,1,13.7-1,19.8
			C1712.9,189.8,1710.9,196,1708.6,202.4z M1675,168c2.2,0.5,4.2,1,5.8,1.5c1.6,0.5,3.2,1.1,4.8,1.8c1.9,1,3.4,1.7,4.6,2.2
			c1.1,0.5,1.8,1.1,2.2,1.8c0.3,0.7,0.4,1.6,0.2,2.6c-0.2,1-0.6,2.3-1.2,4c-1.6,3.2-2.9,6.3-3.8,9.5c-1,3.2-2.1,6.5-3.4,9.9
			c0.3,0.7,1.3,1.3,2.9,1.6c1.6,0.4,3.4,0.6,5.5,0.7c2.1,0.1,3.9,0.1,5.5,0c1.6-0.1,2.6-0.4,2.9-0.9c2.2-4.4,4.2-9,6-13.9
			c1.8-4.9,3-9.8,3.6-14.6c0.6-6.3-0.2-11.2-2.4-14.5c-2.2-3.3-5.3-5.2-9.1-5.7c-3.8-0.5-8,0.4-12.5,2.7
			C1682.1,159.1,1678.2,162.8,1675,168z M1680.8,226.5c4.2-2.9,7.3-5.6,9.4-8.1c2.1-2.4,4.1-5.5,6-9.1c-2.2,0.5-4.8,0.7-7.7,0.5
			c-2.9-0.1-5-0.5-6.2-1.3c-0.6,2.7-1.3,5.5-1.9,8.4C1679.7,219.9,1679.8,223.1,1680.8,226.5z M1702.9,121.5
			c-0.3,2.7-2.4,4.3-6.2,4.8c-2.6,0-4.8-0.4-6.7-1.3c-1.9-0.9-3.2-2.3-3.8-4.2c-0.3-1.2,0.2-2.1,1.7-2.7c1.4-0.6,3-1,4.6-1.3
			C1697.4,116.7,1701,118.3,1702.9,121.5z M1731.7,121.5c-0.3,2.7-2.4,4.3-6.2,4.8c-2.6,0-4.8-0.4-6.7-1.3c-1.9-0.9-3.2-2.3-3.8-4.2
			c-0.3-1.2,0.2-2.1,1.7-2.7c1.4-0.6,3-1,4.6-1.3C1726.2,116.7,1729.7,118.3,1731.7,121.5z"/>
		<path class="st0" d="M1771,192.1c2.2-1.9,4.4-3.9,6.5-5.9c2.1-1.9,4.4-3.9,7-5.9c5.8-4.4,12.2-7.4,19.2-9.1
			c7.7-1.9,14.9-0.6,21.6,4c-1.9,1.2-3.8,2.3-5.5,3.3c-1.8,1-3.4,2.1-5,3.3c-6.4,3.9-12.2,8.2-17.3,12.8c-5.1,4.6-9.9,9.4-14.4,14.3
			c-2.6,2.9-4.3,5.6-5.3,8.1c-1,4.4,1.3,6.2,6.7,5.5c3.5-0.5,7-1.2,10.3-2.2c3.4-1,6.6-2.1,9.8-3.3c14.1-5.9,27.2-12.2,39.3-19
			c5.8-2.9,11.4-5.9,17-9c5.6-3,11.1-6.2,16.6-9.3c1-0.5,1.9-1,2.9-1.6c1-0.6,2.2-1,3.8-1.3c0.3,1,0.1,1.6-0.7,1.8
			c-0.8,0.2-1.5,0.6-2.2,1.1l-56.1,32.9c-7,3.9-14.6,7.3-22.5,10.2c-5.8,2-11.4,3.2-16.8,3.7c-5.4,0.5-10.9-1.1-16.3-4.8
			c-1.6,0.5-2.3,1.1-2.2,1.8c0.2,0.7,0.2,1.3,0.2,1.8c0,6.1,0.3,12.1,1,18.1c0.6,6,1.6,12,2.9,18.1c1,4.9,3.2,10.1,6.7,15.7
			c0.6,1.2,1.5,2.6,2.6,4c1.1,1.5,3,2,5.5,1.5c1,0,1.4,0.4,1.4,1.1c0.3,1-0.2,1.7-1.4,2.2c-1.9,0.5-4.3,0.1-7.2-1.1
			c-1.9-1-3.6-2.1-5-3.5c-1.4-1.3-3-2.7-4.6-4.2c-6.7-8.3-11.2-16.6-13.4-24.9c-2.2-8.3-3.8-17.3-4.8-27.1
			c-0.6-12.2,0.2-25.9,2.6-41.2c2.4-15.2,6.2-30.7,11.5-46.5c5.3-15.7,12-30.9,20.2-45.4c8.2-14.5,17.8-27.1,29-37.9
			c2.6-1.9,5.1-3.7,7.7-5.1c2.6-1.5,5.4-2.7,8.6-3.7c6.1-1.9,11.7-1.6,16.8,0.9c5.1,2.6,7.5,6.3,7.2,11.2c-0.3,4.2-1.1,8-2.4,11.7
			c-1.3,3.7-2.7,7.3-4.3,11c-8,15.9-17.4,31-28.3,45.6c-10.9,14.5-23,28.4-36.5,41.5c-0.3,0.7-1,1.2-1.9,1.5
			c-5.4,2.7-8.5,6.2-9.1,10.4C1771.8,183.8,1771.3,188,1771,192.1z M1775.3,166.5c1.3-0.7,2.2-1.3,2.9-1.8
			c5.8-7.1,11.7-14.1,17.8-21c6.1-7,11.8-14.2,17.3-21.8c5.1-7.1,9.9-14.3,14.4-21.6c4.5-7.3,8.2-14.9,11-22.7
			c1.3-3.4,2.3-6.9,3.1-10.4c0.8-3.5,1-7,0.7-10.4c-0.3-0.7-0.4-1.4-0.2-2c0.2-0.6-0.4-1.2-1.7-1.6c-1.6,0.5-3.4,1.7-5.3,3.7
			c-2.6,2.2-5,4.5-7.2,6.8c-2.2,2.3-4.3,4.8-6.2,7.5c-6.4,8.5-12.2,17.3-17.3,26.2c-5.1,8.9-9.8,18-13.9,27.3
			c-3.2,6.8-6.1,13.7-8.6,20.5C1779.5,151.7,1777.2,158.9,1775.3,166.5z"/>
	</g>
</g>
</svg>
